<svg xmlns="http://www.w3.org/2000/svg" width="16" height="16" viewBox="0 0 16 16">
    <g fill="none" fill-rule="evenodd">
        <path fill="#ED3137" d="M9.435.768l7.642 13.485c.136.24.052.546-.189.682-.075.043-.16.065-.246.065H1.358c-.276 0-.5-.224-.5-.5 0-.086.022-.171.065-.247L8.565.768c.136-.24.441-.325.682-.189.078.045.143.11.188.189z" transform="translate(-1)"/>
        <path fill="#FFF" d="M9 11c.552 0 1 .448 1 1s-.448 1-1 1-1-.448-1-1 .448-1 1-1zm.724-6c.277 0 .5.224.5.5v.025l-.2 4c-.014.266-.233.475-.5.475H8.476c-.267 0-.486-.209-.5-.475l-.2-4c-.014-.276.199-.51.475-.524L9.724 5z" transform="translate(-1)"/>
    </g>
</svg>
