<svg xmlns="http://www.w3.org/2000/svg" width="64" height="64" viewBox="0 0 64 64">
    <g fill="none" fill-rule="evenodd">
        <circle cx="32" cy="32" r="32" fill="#448EF2"/>
        <path fill="#FFF" d="M35.707 24.293l7.071 7.071c.363.363.389.934.078 1.327l-.078.087-7.07 7.071c-.391.39-1.025.39-1.415 0l-1.414-1.414c-.39-.39-.39-1.024 0-1.414l2.949-2.95H21c-.552 0-1-.448-1-1v-2c0-.552.448-1 1-1h14.828l-2.95-2.95c-.39-.39-.39-1.023 0-1.414l1.415-1.414c.39-.39 1.024-.39 1.414 0z"/>
    </g>
</svg>
