<svg xmlns="http://www.w3.org/2000/svg" width="64" height="64" viewBox="0 0 64 64">
    <g fill="none" fill-rule="evenodd" stroke="#000" stroke-opacity=".05">
        <circle cx="32" cy="32" r="29.5" fill="#62D36F"/>
        <path fill="#FFF" d="M22.04 27.768l-2.121 2.121c-.293.293-.44.677-.44 1.06 0 .385.147.769.44 1.061l9.192 9.193c.293.293.677.44 1.06.44.384 0 .768-.147 1.061-.44L45.374 27.06c.293-.293.44-.677.44-1.061 0-.384-.147-.768-.44-1.06l-2.121-2.122c-.293-.293-.677-.44-1.06-.44-.384 0-.768.147-1.061.44L30.17 33.778l-6.01-6.01c-.293-.293-.677-.44-1.06-.44-.384 0-.768.147-1.061.44z"/>
    </g>
</svg>
