<svg xmlns="http://www.w3.org/2000/svg" width="64" height="64" viewBox="0 0 64 64">
    <g fill="none" fill-rule="evenodd">
        <circle cx="32" cy="32" r="32" fill="#ED3137"/>
        <path fill="#FFF" d="M40.485 24.929c.39.39.39 1.024 0 1.414L34.828 32l5.657 5.657c.39.39.39 1.024 0 1.414l-1.414 1.414c-.39.39-1.024.39-1.414 0L32 34.828l-5.657 5.657c-.39.39-1.024.39-1.414 0l-1.414-1.414c-.39-.39-.39-1.024 0-1.414L29.172 32l-5.657-5.657c-.39-.39-.39-1.024 0-1.414l1.414-1.414c.39-.39 1.024-.39 1.414 0L32 29.172l5.657-5.657c.39-.39 1.024-.39 1.414 0l1.414 1.414z"/>
    </g>
</svg>
