<svg xmlns="http://www.w3.org/2000/svg" xmlns:xlink="http://www.w3.org/1999/xlink" width="138" height="138" viewBox="0 0 138 138">
    <defs>
        <path id="prefix__a" d="M111.56 55.851c0 30.807-24.973 55.78-55.78 55.78C24.973 111.631 0 86.658 0 55.851 0 25.044 24.973.071 55.78.071c30.807 0 55.78 24.973 55.78 55.78"/>
        <path id="prefix__c" d="M7.243 21.454s3.222 13.776 3.475 14.96C10.97 37.595.069 44.471.069 44.471s14.642 1.668 24.334-1.235C34.095 40.335 53.77 31.31 53.77 31.31s-4.509.14-14.257-1.07S24.822.335 24.822.335"/>
    </defs>
    <g fill="none" fill-rule="evenodd" opacity=".5">
        <path d="M0 0H138V138H0z"/>
        <path fill="#E8ECEE" d="M124.5 68.25c0 30.652-24.848 55.5-55.5 55.5s-55.5-24.848-55.5-55.5 24.848-55.5 55.5-55.5 55.5 24.848 55.5 55.5"/>
        <g transform="translate(13.5 12.652)">
            <mask id="prefix__b" fill="#fff">
                <use xlink:href="#prefix__a"/>
            </mask>
            <use fill="#DFE4E7" xlink:href="#prefix__a"/>
            <path fill="#272D37" d="M64.453 12.89C55.982 9.661 42.67.786 26.937 25.393c-6.906 10.802 0 16.136-7.261 25.818-7.261 9.681-14.925 20.17-6.455 29.044 8.472 8.875-7.664 13.313-4.437 20.574 3.227 7.261 18.96 20.976 40.34 1.21 21.38-19.766 29.851-12.102 42.357-24.204 12.505-12.102 6.857-23.397 1.613-30.658-5.244-7.26-6.216-19.855-11.295-25.817-9.278-10.892-17.346-8.472-17.346-8.472" mask="url(#prefix__b)"/>
            <path fill="#9CA6AF" d="M118.186 80.023c13.036 2.454 31.743 40.65 37.754 56.843l-25.662 8.494-96.617 20.874s-12.866-42.603-.574-58.741c19.149-25.139 57.026-32.756 85.099-27.47" mask="url(#prefix__b)"/>
            <path fill="#F3F6F8" d="M75.414 47.313S80.356 76.01 90.105 77.22c9.748 1.21 11.866.996 11.866.996s-15.09 8.837-24.781 11.74c-9.692 2.903-26.528 1.495-26.528 1.495s11.324-7.707 9.851-12.452c-.358-1.156-2.677-10.565-2.677-10.565l17.578-21.12z" mask="url(#prefix__b)"/>
        </g>
        <g transform="translate(64.093 59.631)">
            <mask id="prefix__d" fill="#fff">
                <use xlink:href="#prefix__c"/>
            </mask>
            <path fill="#272D37" d="M-12.992-3.55s-.016 38.49 20.229 34.6C26.975 27.257 18.259-7.753 18.259-7.753 7.449-17.395-7.772-19.46-12.992-3.55" mask="url(#prefix__d)"/>
        </g>
        <g>
            <path fill="#F3F6F8" d="M27.188 29.941s4.486 46.151 27.585 38.465c16.826-5.6 8.701-46.836 8.701-46.836-12.832-9.461-33.543-3.67-36.286 8.371" transform="translate(20.728 18.434)"/>
            <path stroke="#272D37" stroke-linecap="round" stroke-linejoin="round" stroke-width=".723" d="M27.188 29.941s4.535 46.297 27.585 38.465c16.423-5.582 8.701-46.836 8.701-46.836-12.832-9.461-33.543-3.67-36.286 8.371z" transform="translate(20.728 18.434)"/>
            <path fill="#272D37" d="M38.455 45.724c.28.88.183 1.698-.216 1.825-.4.128-.953-.483-1.233-1.363-.281-.88-.184-1.697.216-1.825.4-.128.952.483 1.233 1.363" transform="translate(20.728 18.434)"/>
            <path stroke="#272D37" stroke-linecap="round" stroke-linejoin="round" stroke-width="1.09" d="M44.233 44.065L45.042 55.621 49.969 54.05" transform="translate(20.728 18.434)"/>
            <path fill="#272D37" d="M53.844 42.416c.28.88.184 1.698-.217 1.825-.4.128-.952-.483-1.232-1.363-.281-.88-.184-1.698.216-1.825.4-.128.953.483 1.233 1.363" transform="translate(20.728 18.434)"/>
            <path stroke="#272D37" stroke-linecap="round" stroke-linejoin="round" stroke-width="1.09" d="M33.293 39.547s1.87-3.15 4.44-1.096M49.697 35.915s1.87-3.15 4.44-1.095M47.222 60.798s1.424 1.462 2.78.71c1.358-.752 2.345-2.663 2.345-2.663" transform="translate(20.728 18.434)"/>
            <path fill="#F3F6F8" d="M71.786 36.446c.51 4.539-1.097 8.444-3.588 8.724-2.49.28-4.922-3.174-5.432-7.712-.51-4.539 1.097-8.445 3.588-8.724 2.49-.28 4.923 3.173 5.432 7.712" transform="translate(20.728 18.434)"/>
            <path stroke="#272D37" stroke-linecap="round" stroke-linejoin="round" stroke-width=".723" d="M66.968 40.836s.476-6.271 2.476-6.136" transform="translate(20.728 18.434)"/>
            <path fill="#272D37" d="M64.308 30.159s-1.744-.973-6.9-6.657c-2.572-2.835-3.755-4.517-3.755-4.517s-3.954 7.032-8.96 9.679c-5.004 2.646-5.023-4.399-5.023-4.399s-2.39 4.58-5.55 6.413c-3.16 1.833-8.816 3.004-8.816 3.004s1.852-15.804 7.965-18.94c6.112-3.134 26.555-1.475 29.08-.032 10.017 5.725 1.96 15.449 1.96 15.449" transform="translate(20.728 18.434)"/>
            <path stroke="#E8ECEE" stroke-linecap="round" stroke-linejoin="round" stroke-width=".723" d="M32.215 11.141s-9.278 7.26-12.102 14.522M81.026 39.782s6.454 6.455 7.664 11.699M11.238 75.281c-4.438-4.034-3.63-6.454-3.63-6.454" transform="translate(20.728 18.434)"/>
            <path fill="#F3F6F8" d="M33.382 102.255s3.933-1.708 7.061-1.557c3.128.152 5.706 5.635 4.479 5.645-13.645.107-11.54-4.088-11.54-4.088M97.53 75.064s-3.911 1.761-5.903 4.177c-1.992 2.416-.514 5.974.67 6.295.593.16 5.319-3.16 6.478-5.818 1.16-2.657-1.246-4.654-1.246-4.654" transform="translate(20.728 18.434)"/>
            <path stroke="#272D37" stroke-linecap="round" stroke-linejoin="round" stroke-width=".723" d="M53.653 18.984s2.765 8.293 8.01 9.503M35.039 2.67c11.698-7.261 22.187 4.437 22.187 4.437s5.647-3.227 12.102 1.21M16.886 33.328s2.017 9.278-9.682 16.136c-8.417 4.934-9.682 23.8-2.42 26.22M77.799 24.857s4.437 12.908 11.698 19.363c7.416 6.592 5.648 24.607-3.63 28.237M43.434 85.669s10.16 2.118 20.38-.034" transform="translate(20.728 18.434)"/>
        </g>
        <g>
            <path fill="#F3F6F8" d="M21.425 44.509s-2.474-5.339-3.9-5.692c-2.943-.728-7.83 11.263-5.263 12.506 2.68 1.298 6.665-7.612 6.665-7.612l2.498.798z" transform="translate(35.183 76.977)"/>
            <path fill="#F3F6F8" d="M15.03 43.314s-.134-5.548-2.116-5.969c-1.983-.421-4.346 4.329-5.451 7.788-1.104 3.458.505 5.243 1.794 5.654 1.73.552 5.774-7.473 5.774-7.473" transform="translate(35.183 76.977)"/>
            <path fill="#F3F6F8" d="M11.058 41.834s-.457-5.863-2.555-5.262c-2.098.6-7.646 10.685-4.495 12.75 3.152 2.065 7.05-7.488 7.05-7.488" transform="translate(35.183 76.977)"/>
            <path fill="#F3F6F8" d="M6.368 39.278s-.371-4.142-2.145-3.226c-1.775.915-4.278 4.775-4.184 7.133.094 2.36 1.149 5.025 3.037 3.088 1.136-1.165 3.292-6.995 3.292-6.995" transform="translate(35.183 76.977)"/>
            <path stroke="#272D37" stroke-linecap="round" stroke-linejoin="round" stroke-width=".723" d="M17.526 38.818c-2.944-.728-7.83 11.262-5.264 12.505 2.68 1.298 6.665-7.612 6.665-7.612M8.503 36.572c-1.573.45-5.088 6.236-5.418 9.972-.109 1.245.135 2.262.923 2.778 0 0 1.612 1.362 3.03-.868" transform="translate(35.183 76.977)"/>
            <path stroke="#272D37" stroke-linecap="round" stroke-linejoin="round" stroke-width=".723" d="M4.223 36.052c-1.775.916-4.278 4.774-4.184 7.133.094 2.36 1.148 5.025 3.037 3.087M11.408 49.356s-1.274 1.781-2.15 1.43c-.629-.25-1.37-.754-1.795-1.684-.426-.93-.552-2.24 0-3.97 1.105-3.458 3.469-8.208 5.451-7.787" transform="translate(35.183 76.977)"/>
            <path fill="#F3F6F8" d="M81.984 18.906s-2.286-5.422-1.588-6.715c1.442-2.667 13.601 1.784 12.793 4.52-.843 2.856-10.115-.19-10.115-.19l-1.09 2.385z" transform="translate(35.183 76.977)"/>
            <path fill="#F3F6F8" d="M85.401 13.371S81.387 9.54 82.41 7.79c1.022-1.75 6.127-.303 9.429 1.207 3.302 1.51 3.539 3.9 2.977 5.13-.756 1.652-9.414-.755-9.414-.755" transform="translate(35.183 76.977)"/>
            <path fill="#F3F6F8" d="M86.98 9.436s-4.03-4.283-2.175-5.43c1.856-1.148 13.05 1.531 12.458 5.252-.593 3.721-10.284.178-10.284.178" transform="translate(35.183 76.977)"/>
            <path fill="#F3F6F8" d="M88.243 4.247S85.429 1.186 87.3.489c1.871-.697 6.41.048 8.092 1.704 1.682 1.656 2.945 4.23.24 4.324-1.624.056-7.389-2.27-7.389-2.27" transform="translate(35.183 76.977)"/>
            <path stroke="#272D37" stroke-linecap="round" stroke-linejoin="round" stroke-width=".723" d="M80.396 12.192c1.442-2.668 13.601 1.783 12.794 4.518-.843 2.857-10.116-.189-10.116-.189M84.805 4.005c1.391-.86 8.037.432 11.022 2.701.995.757 1.583 1.621 1.435 2.552 0 0-.077 2.11-2.68 1.658" transform="translate(35.183 76.977)"/>
            <path stroke="#272D37" stroke-linecap="round" stroke-linejoin="round" stroke-width=".723" d="M87.3.489c1.871-.697 6.41.048 8.092 1.703 1.682 1.657 2.945 4.23.24 4.325M92.31 14.756s2.174.255 2.504-.63c.237-.633.363-1.52-.039-2.46-.402-.94-1.286-1.915-2.937-2.67-3.302-1.51-8.406-2.958-9.43-1.207" transform="translate(35.183 76.977)"/>
        </g>
    </g>
</svg>
