<svg xmlns="http://www.w3.org/2000/svg" width="16" height="16" viewBox="0 0 16 16">
    <g fill="none" fill-rule="evenodd">
        <circle cx="8" cy="8" r="8" fill="#ED3137"/>
        <path fill="#FFF" d="M11.536 4.464c.292.293.292.768 0 1.061L9.06 8l2.476 2.476c.292.293.292.768 0 1.06-.293.293-.768.293-1.061 0L7.999 9.06l-2.474 2.476c-.293.292-.768.292-1.06 0-.293-.293-.293-.768 0-1.061l2.474-2.476-2.475-2.474c-.292-.293-.292-.768 0-1.06.293-.293.768-.293 1.061 0L8 6.937l2.475-2.474c.293-.292.768-.292 1.06 0z"/>
    </g>
</svg>
