<svg xmlns="http://www.w3.org/2000/svg" width="16" height="16" viewBox="0 0 16 16">
    <g fill="none" fill-rule="evenodd">
        <path fill="#42C5E1" d="M2.5 0H10l4 4v11.5c0 .276-.224.5-.5.5h-11c-.276 0-.5-.224-.5-.5V.5c0-.276.224-.5.5-.5z"/>
        <path fill="#FFF" d="M11.5 11c.276 0 .5.224.5.5v.5c0 .276-.224.5-.5.5h-7c-.276 0-.5-.224-.5-.5v-.5c0-.276.224-.5.5-.5h7zm0-3c.276 0 .5.224.5.5V9c0 .276-.224.5-.5.5h-7c-.276 0-.5-.224-.5-.5v-.5c0-.276.224-.5.5-.5h7zm-3-3c.276 0 .5.224.5.5V6c0 .276-.224.5-.5.5h-4c-.276 0-.5-.224-.5-.5v-.5c0-.276.224-.5.5-.5h4z"/>
        <path fill="#A0E2F0" d="M10 0l4 4h-3.5c-.276 0-.5-.224-.5-.5V0z"/>
    </g>
</svg>
