<svg xmlns="http://www.w3.org/2000/svg" width="119" height="20" viewBox="0 0 119 20">
    <g fill="none" fill-rule="evenodd">
        <path fill="#ED3137" d="M10 20c-2.287 0-4.395-.766-6.075-2.055-.586-.444-1.125-.961-1.595-1.527C.872 14.68 0 12.446 0 10c0-2.44.872-4.675 2.33-6.413.47-.565 1.009-1.078 1.595-1.527C5.605.766 7.713 0 10 0 6.815 2.187 4.728 5.848 4.728 10S6.815 17.818 10 20"/>
        <path fill="#E4E5E6" d="M17.713 16.36c-1.686 2.045-4.163 3.402-6.963 3.608-.248.022-.497.032-.75.032V0c.253 0 .502.01.75.032 2.8.206 5.277 1.569 6.963 3.613C19.139 5.373 20 7.585 20 10c0 2.42-.861 4.633-2.287 6.36z"/>
        <path fill="#151826" d="M66.117 5.06l-9.263 7.75h9.263v2.066H50.622l9.263-7.75h-9.263V5.058h15.495zm52.682 0v2.065H112.6v7.75h-3.099v-7.75h-6.198V5.06H118.8zm-30.99 0l9.297 2.842V5.059h3.1v9.817h-3.1V9.968L87.81 7.125v7.75H84.71V5.06h3.1zm-52.681 0l9.297 2.842V5.059h3.099v9.817h-3.1V9.968l-9.296-2.843v7.75h-3.1V5.06h3.1zm-6.198 0v9.816h-3.099V5.059h3.099zm52.682 0v1.937h-9.297v2.066h7.747v1.81h-7.747v2.065h9.297v1.938H69.216V5.06h12.396z"/>
    </g>
</svg>
