<?xml version="1.0" encoding="utf-8"?>
<!-- Generator: Adobe Illustrator 24.2.3, SVG Export Plug-In . SVG Version: 6.00 Build 0)  -->
<svg version="1.1" id="레이어_1" xmlns="http://www.w3.org/2000/svg" xmlns:xlink="http://www.w3.org/1999/xlink" x="0px"
	 y="0px" viewBox="0 0 187.6 40" style="enable-background:new 0 0 187.6 40;" xml:space="preserve">
<style type="text/css">
	.st0{fill:#151826;}
</style>
<g>
	<path class="st0" d="M22.6,21.3l0,0.1H7.1c0.3,1,0.9,1.9,1.7,2.5c0.8,0.6,1.9,1,3.2,1c0.7,0,1.4-0.1,2-0.4c0.6-0.3,1-0.7,1.3-1.2
		h7.2c-0.5,2.2-1.7,4-3.7,5.3c-1.9,1.3-4.2,2-6.9,2c-2.3,0-4.4-0.5-6.2-1.5c-1.8-1-3.2-2.3-4.2-4.1c-1-1.7-1.5-3.7-1.5-5.9
		c0-2.2,0.5-4.1,1.4-5.8c1-1.7,2.3-3.1,4.1-4C7.3,8.5,9.3,8,11.6,8c2.1,0,4,0.5,5.7,1.4c1.7,0.9,3,2.2,4,3.8c1,1.6,1.5,3.5,1.5,5.7
		C22.7,20,22.7,20.8,22.6,21.3z M8.6,14.6c-0.8,0.6-1.3,1.5-1.6,2.7h8.9c-0.2-1.2-0.7-2.1-1.4-2.7c-0.7-0.6-1.7-0.9-2.9-0.9
		C10.4,13.6,9.4,13.9,8.6,14.6z"/>
	<path class="st0" d="M31.2,30.2h-8.7l10.2-15l-10-15.5h9.1l6,9.4l6-9.4h9.1l-10,15.5l10.2,15h-8.7l-6.5-9.4L31.2,30.2z"/>
	<path class="st0" d="M74.5,9.5c1.7,1,3,2.3,3.9,4.1c1,1.7,1.5,3.7,1.5,5.8c0,2.1-0.5,4-1.5,5.7c-1,1.7-2.3,3.1-3.9,4.1
		c-1.7,1-3.5,1.5-5.4,1.5c-2.2,0-4.2-0.6-6-1.7v11.3h-7.3V8.5h7.3v1.2c1.7-1.1,3.7-1.7,6-1.7C71,8,72.8,8.5,74.5,9.5z M71.3,23.2
		c1-1,1.5-2.3,1.5-3.8c0-1.5-0.5-2.8-1.5-3.9c-1-1-2.2-1.6-3.7-1.6c-1.9,0-3.4,0.7-4.5,2.1v6.7c1.2,1.3,2.7,2,4.5,2
		C69.1,24.7,70.3,24.2,71.3,23.2z"/>
	<path class="st0" d="M105.4,21.3l0,0.1H89.9c0.3,1,0.9,1.9,1.7,2.5c0.8,0.6,1.9,1,3.2,1c0.7,0,1.4-0.1,2-0.4s1-0.7,1.3-1.2h7.2
		c-0.5,2.2-1.7,4-3.7,5.3c-1.9,1.3-4.2,2-6.9,2c-2.3,0-4.4-0.5-6.2-1.5s-3.2-2.3-4.2-4.1s-1.5-3.7-1.5-5.9c0-2.2,0.5-4.1,1.4-5.8
		s2.3-3.1,4.1-4c1.8-1,3.8-1.5,6.1-1.5c2.1,0,4,0.5,5.7,1.4c1.7,0.9,3,2.2,4,3.8c1,1.6,1.5,3.5,1.5,5.7
		C105.5,20,105.5,20.8,105.4,21.3z M91.4,14.6c-0.8,0.6-1.3,1.5-1.6,2.7h8.9c-0.2-1.2-0.7-2.1-1.4-2.7s-1.7-0.9-2.9-0.9
		C93.2,13.6,92.2,13.9,91.4,14.6z"/>
	<path class="st0" d="M119.4,15.8c-1.2,0.5-2.2,1.1-3.1,2v12.4h-7.3V8.5h7.3v2.3c2.1-1.8,4.6-2.7,7.5-2.7V15
		C122.1,15.1,120.6,15.3,119.4,15.8z"/>
	<path class="st0" d="M148.4,1.7c2.5,1.3,4.5,3.1,5.9,5.4c1.4,2.3,2.1,4.9,2.1,7.8c0,3-0.7,5.6-2.1,8c-1.4,2.3-3.4,4.1-5.9,5.4
		c-2.5,1.3-5.3,1.9-8.5,1.9h-12.3V-0.3H140C143.1-0.3,145.9,0.4,148.4,1.7z M144.4,22.3c1.3-0.7,2.4-1.8,3.2-3.1
		c0.8-1.3,1.1-2.7,1.1-4.3c0-1.6-0.4-3-1.2-4.2c-0.8-1.3-1.8-2.3-3.2-3c-1.3-0.7-2.8-1.1-4.4-1.1h-4.7v16.9h4.7
		C141.6,23.4,143.1,23,144.4,22.3z"/>
	<path class="st0" d="M186.2,17.1c1,1.3,1.5,2.9,1.5,4.6c0,2.6-1,4.6-2.9,6.2c-2,1.5-4.6,2.3-8,2.3h-16V-0.3h15.1
		c3.3,0,5.9,0.7,7.7,2.2c1.9,1.4,2.8,3.4,2.8,5.9c0,1.5-0.4,2.8-1.1,4.1s-1.8,2.1-3.1,2.6C183.8,14.9,185.2,15.8,186.2,17.1z
		 M174.6,12.2c1.4,0,2.5-0.3,3.2-0.9c0.8-0.6,1.1-1.4,1.1-2.4c0-1-0.4-1.7-1.1-2.2c-0.7-0.5-1.8-0.8-3.3-0.8h-6.3v6.2H174.6z
		 M179.1,23.1c0.7-0.6,1.1-1.4,1.1-2.3c0-0.9-0.4-1.6-1.1-2.1s-1.8-0.7-3.2-0.7h-7.5v6h7.4C177.2,23.9,178.3,23.6,179.1,23.1z"/>
</g>
</svg>
