<svg xmlns="http://www.w3.org/2000/svg" width="64" height="64" viewBox="0 0 64 64">
    <g fill="none" fill-rule="evenodd">
        <path fill="#EFC302" d="M32.86 4.452L63.105 55.49c.282.475.125 1.089-.35 1.37-.155.092-.33.14-.51.14H1.755c-.552 0-1-.448-1-1 0-.18.048-.355.14-.51L31.14 4.452c.281-.475.895-.632 1.37-.35.144.085.265.205.35.35z"/>
        <path fill="#151826" fill-rule="nonzero" d="M33.945 39.359l.343-13.847c.007-.276-.211-.505-.488-.512h-3.588c-.276 0-.5.224-.5.5v.012l.343 13.847c.007.271.229.488.5.488h2.89c.271 0 .493-.217.5-.488zM32 47.515c1.396 0 2.5-1.058 2.5-2.408 0-1.35-1.104-2.408-2.5-2.408s-2.5 1.059-2.5 2.408c0 1.35 1.104 2.408 2.5 2.408z"/>
    </g>
</svg>
